<svg width="2637" height="1490" viewBox="0 0 2637 1490" fill="none" xmlns="http://www.w3.org/2000/svg">
<g clip-path="url(#clip0_4_4)">
<rect width="2637" height="1490" fill="white"/>
<path d="M413.724 1327.14V1436.77C413.723 1462.87 460.725 1464.61 460.725 1436.77V1327.14C660.499 1143.93 669.994 1088.83 610.431 1026.09C898.483 842.06 928.994 664.133 652.21 756.362C917.7 495.085 895.159 307.453 655.692 425.732C742.262 199.735 694.05 99.4173 552.986 156.007C505.842 2.31909 373.685 -18.0093 323.203 156.007C199.993 84.0508 129.977 216.912 220.497 425.731C-3.07888 331.397 -51.0915 442.1 220.497 754.622C3.36072 650.966 -73.6944 824.228 264.017 1029.57C177.021 1096.74 305.796 1231.43 408.502 1320.17L413.724 1259.27C284.519 1135.84 236.758 1077.42 328.426 1050.45C346.546 1038.74 345.098 1030.32 333.648 1013.91L140.422 874.693C36.3813 758.126 64.7048 750.895 210.053 801.606C263.255 799.889 273.136 783.962 264.017 735.48L96.902 526.661C55.8939 427.119 75.6224 414.494 171.756 453.574C249.342 492.107 266.449 478.448 264.017 410.07L227.461 270.857C214.933 172.616 276.202 156.007 323.203 234.314C346.503 248.717 355.624 245.663 366.723 225.613C372.951 23.0511 512.948 41.1561 509.467 225.613C520.94 248.31 530.151 249.069 549.505 237.794C602.577 152.82 676.582 176.889 648.729 277.818L606.951 410.07C603.596 477.275 620.652 488.949 687.026 460.535C812.278 395.246 828.458 436.316 765.362 540.582L629.581 709.377C582.299 783.471 617.395 815.527 687.026 796.385C829.243 739.798 824.548 782.464 746.213 862.511V865.992L556.468 1006.94C529.125 1026.31 532.097 1045.23 556.468 1050.45C607.212 1071.16 604.715 1094.39 577.357 1144.42L460.725 1255.79V1182.7L528.615 1137.46C529.066 1114.11 524.608 1105.34 502.504 1102.65L460.725 1132.24V994.764L646.989 876.433C650.309 850.993 643.753 844.116 620.877 841.63L460.725 939.078V777.244L667.878 568.424C668.834 540.69 663.018 532.505 633.062 540.582L460.725 709.377V554.503L579.098 323.062C571.529 302.056 565.291 293.75 540.801 302.18L460.725 450.094V216.912C443.602 200.824 433.386 195.336 411.983 216.912V450.094L338.87 305.66C313.745 296.202 303.235 298.049 297.092 326.542L411.983 554.503V709.377L237.905 540.582C214.234 534.703 204.068 536.57 203.09 568.424L411.983 777.244V939.078L260.535 846.85C235.488 851.55 225.02 856.498 239.646 886.874L411.983 994.764V1132.24L373.686 1102.65C347.981 1104.79 342.039 1112.85 344.093 1137.46L411.983 1182.7L413.724 1259.27V1327.14Z" fill="#242B7B"/>
<path d="M413.724 1327.14C413.724 1327.14 413.724 1410.66 413.724 1436.77M413.724 1327.14V1259.27M413.724 1327.14L408.502 1320.17M413.724 1327.14V1436.77M413.724 1436.77C413.723 1462.87 460.725 1464.61 460.725 1436.77M460.725 1436.77C460.725 1408.92 460.725 1327.14 460.725 1327.14M460.725 1436.77V1327.14M460.725 1327.14C660.499 1143.93 669.994 1088.83 610.431 1026.09C898.483 842.06 928.994 664.133 652.21 756.362C917.7 495.085 895.159 307.453 655.692 425.732C742.262 199.735 694.05 99.4173 552.986 156.007C505.842 2.31909 373.685 -18.0093 323.203 156.007C199.993 84.0508 129.977 216.912 220.497 425.731C-3.07888 331.397 -51.0915 442.1 220.497 754.622C3.36072 650.966 -73.6944 824.228 264.017 1029.57C177.021 1096.74 305.796 1231.43 408.502 1320.17M408.502 1320.17L413.724 1259.27M413.724 1259.27C284.519 1135.84 236.758 1077.42 328.426 1050.45C346.546 1038.74 345.098 1030.32 333.648 1013.91L140.422 874.693C36.3813 758.126 64.7048 750.895 210.053 801.606C263.255 799.889 273.136 783.962 264.017 735.48L96.902 526.661C55.8939 427.119 75.6224 414.494 171.756 453.574C249.342 492.107 266.449 478.448 264.017 410.07L227.461 270.857C214.933 172.616 276.202 156.007 323.203 234.314C346.503 248.717 355.624 245.663 366.723 225.613C372.951 23.0511 512.948 41.1561 509.467 225.613C520.94 248.31 530.151 249.069 549.505 237.794C602.577 152.82 676.582 176.889 648.729 277.818L606.951 410.07C603.596 477.275 620.652 488.949 687.026 460.535C812.278 395.246 828.458 436.316 765.362 540.582L629.581 709.377C582.299 783.471 617.395 815.527 687.026 796.385C829.243 739.798 824.548 782.464 746.213 862.511V865.992L556.468 1006.94C529.125 1026.31 532.097 1045.23 556.468 1050.45C607.212 1071.16 604.715 1094.39 577.357 1144.42L460.725 1255.79V1182.7L528.615 1137.46C529.066 1114.11 524.608 1105.34 502.504 1102.65L460.725 1132.24V994.764L646.989 876.433C650.309 850.993 643.753 844.116 620.877 841.63L460.725 939.078V777.244L667.878 568.424C668.834 540.69 663.018 532.505 633.062 540.582L460.725 709.377V554.503L579.098 323.062C571.529 302.056 565.291 293.75 540.801 302.18L460.725 450.094V216.912C443.602 200.824 433.386 195.336 411.983 216.912V450.094L338.87 305.66C313.745 296.202 303.235 298.049 297.092 326.542L411.983 554.503V709.377L237.905 540.582C214.234 534.703 204.068 536.57 203.09 568.424L411.983 777.244V939.078L260.535 846.85C235.488 851.55 225.02 856.498 239.646 886.874L411.983 994.764V1132.24L373.686 1102.65C347.981 1104.79 342.039 1112.85 344.093 1137.46L411.983 1182.7L413.724 1259.27Z" stroke="#242B7B"/>
<path d="M1184.75 558.3C1187.78 576.733 1188.13 593.883 1185.8 609.75C1183.7 625.617 1180.08 639.85 1174.95 652.45C1169.82 664.817 1163.87 675.433 1157.1 684.3C1150.57 692.933 1144.38 699.35 1138.55 703.55C1119.18 717.783 1100.87 727.583 1083.6 732.95C1066.33 738.083 1050.35 739.6 1035.65 737.5C1021.18 735.633 1008.12 730.617 996.45 722.45C984.783 714.283 974.75 704.017 966.35 691.65C960.05 682.317 955.85 671.467 953.75 659.1C951.883 646.5 951.883 633.433 953.75 619.9C955.617 606.133 959.35 592.25 964.95 578.25C970.783 564.25 978.367 551.183 987.7 539.05C997.033 526.683 1008.12 515.717 1020.95 506.15C1033.78 496.583 1048.25 489.233 1064.35 484.1C1069.25 482.467 1075.67 481.3 1083.6 480.6C1091.53 479.667 1098.77 479.55 1105.3 480.25L1107.4 490.4L1101.45 500.2L1120.7 496.35L1132.25 506.5L1137.85 491.8C1149.05 497.867 1158.97 506.267 1167.6 517C1176.23 527.733 1181.95 541.5 1184.75 558.3ZM1137.85 578.25C1135.98 567.283 1132.72 558.067 1128.05 550.6C1123.62 542.9 1118.02 537.3 1111.25 533.8C1104.48 530.067 1096.67 528.55 1087.8 529.25C1078.93 529.95 1069.37 533.1 1059.1 538.7C1043.23 547.1 1030.63 557.25 1021.3 569.15C1011.97 580.817 1005.43 592.717 1001.7 604.85C997.967 616.983 996.8 628.65 998.2 639.85C999.6 651.05 1003.1 660.383 1008.7 667.85C1014.3 675.083 1020.48 680.333 1027.25 683.6C1034.25 686.633 1041.37 688.267 1048.6 688.5C1055.83 688.733 1062.95 687.8 1069.95 685.7C1077.18 683.367 1083.6 680.45 1089.2 676.95C1099.23 670.883 1107.63 663.883 1114.4 655.95C1121.4 648.017 1126.88 639.733 1130.85 631.1C1134.82 622.467 1137.27 613.6 1138.2 604.5C1139.37 595.4 1139.25 586.65 1137.85 578.25ZM1391.55 731.2L1380.35 730.5L1373.7 738.9L1355.5 729.1L1343.95 739.25L1328.9 682.9L1258.55 690.25L1246.65 739.25L1230.55 741L1212.7 728.4L1199.4 731.2L1249.1 528.9L1224.6 530.3L1226.35 518.4L1219 507.55L1227.75 491.45L1220.4 483.4L1323.65 476.05L1391.55 731.2ZM1316.65 636.7L1293.2 547.8L1270.45 641.6L1316.65 636.7ZM1575.49 499.5L1505.14 589.1L1566.04 729.8L1549.94 742.75L1532.09 734L1521.94 746.95L1471.89 631.45L1452.99 655.25V731.9L1437.24 726.3L1421.49 742.4L1405.74 735.05V489.7L1413.79 481.3L1428.49 494.25L1439.34 484.45L1452.99 486.55V578.95L1538.04 470.8L1541.54 482L1560.09 475.7L1563.59 491.45L1575.49 499.5ZM1774.36 731.2L1763.16 730.5L1756.51 738.9L1738.31 729.1L1726.76 739.25L1711.71 682.9L1641.36 690.25L1629.46 739.25L1613.36 741L1595.51 728.4L1582.21 731.2L1631.91 528.9L1607.41 530.3L1609.16 518.4L1601.81 507.55L1610.56 491.45L1603.21 483.4L1706.46 476.05L1774.36 731.2ZM1699.46 636.7L1676.01 547.8L1653.26 641.6L1699.46 636.7ZM1986.65 553.75C1987.82 567.517 1986.3 581.05 1982.1 594.35C1977.9 607.65 1971.83 620.6 1963.9 633.2C1955.97 645.8 1946.75 657.817 1936.25 669.25C1925.75 680.45 1914.9 690.833 1903.7 700.4C1892.5 709.733 1881.3 718.017 1870.1 725.25C1859.13 732.483 1849.22 738.317 1840.35 742.75C1839.88 742.283 1838.72 741.7 1836.85 741C1834.98 740.533 1833.12 739.95 1831.25 739.25C1828.68 738.317 1826.12 737.5 1823.55 736.8L1820.05 715.8L1806.75 713L1802.9 533.8L1785.75 535.9L1790.3 524L1781.2 512.8L1788.9 499.15L1783.3 487.95C1793.33 486.783 1805.12 485.5 1818.65 484.1C1832.42 482.467 1846.53 481.533 1861 481.3C1875.7 480.833 1890.17 481.417 1904.4 483.05C1918.87 484.683 1931.93 488.183 1943.6 493.55C1955.27 498.683 1964.95 506.15 1972.65 515.95C1980.58 525.517 1985.25 538.117 1986.65 553.75ZM1894.95 527.85C1887.48 526.217 1880.13 525.867 1872.9 526.8C1865.67 527.733 1857.97 528.433 1849.8 528.9L1851.2 682.2C1861.7 675.667 1872.2 667.733 1882.7 658.4C1893.43 649.067 1903 639.267 1911.4 629C1920.03 618.5 1926.92 608 1932.05 597.5C1937.18 587 1939.52 577.2 1939.05 568.1C1938.82 558.767 1935.32 550.6 1928.55 543.6C1921.78 536.367 1910.58 531.117 1894.95 527.85ZM2173.2 701.1L2167.6 712.65L2173.2 724.55L2047.2 745.9L2045.1 730.5H2031.45L2033.9 713.7L2016.4 713L2021.65 532.4H2008L2013.6 520.85L2004.5 509.65L2009.05 498.1L2006.6 486.2L2155.7 478.85L2159.55 497.05L2149.4 508.6L2155.7 526.1L2068.9 530.3L2067.15 592.25L2145.9 582.8L2140.3 599.25L2152.9 610.45L2148.35 629.7L2065.75 639.85L2064.35 694.45L2167.6 677.3L2163.05 690.95L2173.2 701.1ZM2412 736.45L2393.1 729.45L2378.4 744.15L2365.1 738.55L2360.9 619.9L2304.9 753.95L2246.1 611.15V735.4L2235.6 734L2222.65 739.6L2212.5 728.4L2198.85 734.7L2200.6 485.15L2212.5 492.15L2227.2 477.45L2245.4 484.1L2303.85 634.6L2356 483.75L2367.2 489.35L2380.15 472.2L2390.3 484.1L2404.3 483.75L2412 736.45ZM2619.51 482.35L2555.81 617.8L2557.91 729.45L2547.41 728.05L2535.16 734L2522.56 727.35L2510.66 734L2508.56 620.95L2430.86 502.65L2452.91 500.9L2455.01 485.15L2470.41 476.75L2528.51 564.95L2576.81 462.4L2589.06 462.75L2595.01 482.35L2609.01 478.85L2619.51 482.35Z" fill="#242B7B"/>
<path d="M1072.4 1024.4L1007.6 1035.6L1006.4 1025.4H996.4L997.8 891.8L1005.2 893.6L1016.2 885.2L1024.8 889.2L1024 1004L1067.6 997.8L1071 1002.8L1066.8 1012L1071.8 1016.2L1072.4 1024.4ZM1238.06 1014.2L1234.86 1020.8L1238.06 1027.6L1166.06 1039.8L1164.86 1031H1157.06L1158.46 1021.4L1148.46 1021L1151.46 917.8H1143.66L1146.86 911.2L1141.66 904.8L1144.26 898.2L1142.86 891.4L1228.06 887.2L1230.26 897.6L1224.46 904.2L1228.06 914.2L1178.46 916.6L1177.46 952L1222.46 946.6L1219.26 956L1226.46 962.4L1223.86 973.4L1176.66 979.2L1175.86 1010.4L1234.86 1000.6L1232.26 1008.4L1238.06 1014.2ZM1411.12 1031.4L1404.72 1031L1400.92 1035.8L1390.52 1030.2L1383.92 1036L1375.32 1003.8L1335.12 1008L1328.32 1036L1319.12 1037L1308.92 1029.8L1301.32 1031.4L1329.72 915.8L1315.72 916.6L1316.72 909.8L1312.52 903.6L1317.52 894.4L1313.32 889.8L1372.32 885.6L1411.12 1031.4ZM1368.32 977.4L1354.92 926.6L1341.92 980.2L1368.32 977.4ZM1582.23 1027.4L1577.03 1033H1563.23L1558.03 1039.2L1534.43 989.4C1531.36 991.267 1528.23 993.067 1525.03 994.8C1521.96 996.4 1518.83 998 1515.63 999.6L1516.83 1032.2L1509.03 1032L1503.63 1036.4L1496.43 1029.6L1489.83 1033.2L1485.83 915.2C1484.63 915.467 1483.5 915.6 1482.43 915.6C1481.5 915.6 1480.7 915.667 1480.03 915.8C1479.23 915.933 1478.56 916 1478.03 916L1481.03 907.8L1474.83 899.8L1477.83 895.2L1475.03 889.2C1481.3 888.4 1487.63 887.667 1494.03 887C1499.36 886.333 1505.03 885.8 1511.03 885.4C1517.16 885 1522.56 884.8 1527.23 884.8C1532.83 884.8 1538.36 885.133 1543.83 885.8C1549.43 886.467 1554.63 887.733 1559.43 889.6C1564.36 891.467 1568.76 894.067 1572.63 897.4C1576.5 900.733 1579.56 905.133 1581.83 910.6C1584.5 917 1585.76 923.133 1585.63 929C1585.5 934.867 1584.23 940.467 1581.83 945.8C1579.56 951 1576.3 956 1572.03 960.8C1567.9 965.6 1563.03 970.133 1557.43 974.4L1582.23 1027.4ZM1541.43 951.8C1549.43 946.6 1554.36 941.533 1556.23 936.6C1558.23 931.533 1558.03 927.067 1555.63 923.2C1553.36 919.333 1549.43 916.333 1543.83 914.2C1538.23 912.067 1531.9 911.267 1524.83 911.8C1523.1 911.933 1521.23 912.067 1519.23 912.2C1517.23 912.333 1515.1 912.533 1512.83 912.8L1514.63 968.8C1519.16 966.133 1523.56 963.4 1527.83 960.6C1532.23 957.8 1536.76 954.867 1541.43 951.8ZM1755.6 890.6L1750.4 1029L1743.6 1022.2L1741 1032L1683.2 949.4L1686 1029.8L1680.2 1030.8L1669.8 1025.4L1665.2 1033L1658.6 1032.4L1654.8 892.8L1661.6 895.6L1669.8 888L1680.4 890.6L1726.4 961.8L1728.6 889.8L1735 892.4L1742 885.2L1748 890.8L1755.6 890.6ZM1859.95 889L1858.95 1032.6L1851.95 1037.8L1838.95 1029L1831.95 1033L1832.95 889.2L1839.35 885L1846.35 892.8L1853.15 889.2L1859.95 889ZM2038.39 890.6L2033.19 1029L2026.39 1022.2L2023.79 1032L1965.99 949.4L1968.79 1029.8L1962.99 1030.8L1952.59 1025.4L1947.99 1033L1941.39 1032.4L1937.59 892.8L1944.39 895.6L1952.59 888L1963.19 890.6L2009.19 961.8L2011.39 889.8L2017.79 892.4L2024.79 885.2L2030.79 890.8L2038.39 890.6ZM2232.55 964.2L2229.35 971V978.2L2220.35 980.4L2220.15 1021.2C2208.28 1028.8 2196.48 1033.87 2184.75 1036.4C2173.15 1039.07 2162.41 1039.53 2152.55 1037.8C2142.81 1036.07 2134.35 1032.47 2127.15 1027C2119.95 1021.4 2114.95 1014.4 2112.15 1006C2110.01 999.733 2109.21 992.733 2109.75 985C2110.41 977.267 2112.15 969.333 2114.95 961.2C2117.75 952.933 2121.55 944.667 2126.35 936.4C2131.28 928.133 2137.01 920.333 2143.55 913C2150.08 905.667 2157.35 899.067 2165.35 893.2C2173.48 887.2 2182.15 882.467 2191.35 879L2196.15 883.8L2202.95 883.4L2205.35 892.8L2212.75 890.8L2209.75 932L2203.35 931.2L2196.55 936.6L2189.15 928.8L2182.55 933.6L2183.35 912.4C2174.95 918.667 2167.48 925.533 2160.95 933C2154.55 940.333 2149.35 947.8 2145.35 955.4C2141.35 962.867 2138.55 970.067 2136.95 977C2135.48 983.933 2135.48 990.067 2136.95 995.4C2138.01 999.667 2140.48 1003.07 2144.35 1005.6C2148.35 1008 2153.01 1009.67 2158.35 1010.6C2163.68 1011.4 2169.35 1011.4 2175.35 1010.6C2181.48 1009.67 2187.35 1007.93 2192.95 1005.4L2193.95 981.6L2165.75 983.8L2162.75 975.8L2168.55 962.8L2165.15 956.8L2229.55 950.2L2226.95 957.6L2232.55 964.2Z" fill="#242B7B"/>
</g>
<defs>
<clipPath id="clip0_4_4">
<rect width="2637" height="1490" fill="white"/>
</clipPath>
</defs>
</svg>
