<svg width="2637" height="1490" viewBox="0 0 2637 1490" fill="none" xmlns="http://www.w3.org/2000/svg">
<g clip-path="url(#clip0_4_4)">
<path d="M464.363 1048.33V1105.46C464.362 1119.06 488.791 1119.96 488.791 1105.46V1048.33C592.625 952.869 597.56 924.157 566.602 891.465C716.318 795.575 732.176 702.863 588.317 750.921C726.306 614.777 714.59 517.008 590.126 578.64C635.121 460.88 610.063 408.608 536.744 438.095C512.241 358.013 443.553 347.421 417.314 438.095C353.275 400.601 316.884 469.831 363.932 578.64C247.728 529.485 222.773 587.169 363.932 750.013C251.075 696.002 211.026 786.283 386.552 893.278C341.335 928.283 408.267 998.46 461.648 1044.7L464.363 1012.97C397.208 948.655 372.384 918.212 420.029 904.159C429.447 898.056 428.694 893.673 422.743 885.118L322.313 812.579C268.238 751.84 282.959 748.072 358.504 774.495C386.156 773.601 391.292 765.302 386.552 740.039L299.694 631.23C278.379 579.363 288.633 572.784 338.599 593.147C378.925 613.226 387.816 606.108 386.552 570.479L367.552 497.94C361.04 446.749 392.885 438.095 417.314 478.898C429.425 486.403 434.165 484.812 439.934 474.364C443.171 368.816 515.935 378.25 514.125 474.364C520.088 486.191 524.876 486.586 534.935 480.712C562.52 436.434 600.984 448.976 586.507 501.567L564.793 570.479C563.049 605.497 571.914 611.58 606.413 596.774C671.512 562.755 679.922 584.155 647.127 638.484L576.555 726.438C551.98 765.046 570.221 781.749 606.413 771.775C680.33 742.289 677.89 764.521 637.175 806.231V808.045L538.554 881.491C524.343 891.582 525.887 901.439 538.554 904.159C564.929 914.954 563.631 927.057 549.412 953.123L488.791 1011.15V973.072L524.078 949.496C524.312 937.334 521.995 932.761 510.506 931.362L488.791 946.776V875.144L585.603 813.485C587.328 800.23 583.921 796.646 572.031 795.35L488.791 846.128V761.801L596.46 652.992C596.957 638.541 593.934 634.276 578.364 638.484L488.791 726.438V645.738L550.316 525.142C546.382 514.196 543.14 509.868 530.411 514.261L488.791 591.334V469.831C479.892 461.448 474.582 458.588 463.458 469.831V591.334L425.457 516.074C412.398 511.146 406.936 512.109 403.743 526.955L463.458 645.738V726.438L372.98 638.484C360.677 635.421 355.393 636.394 354.885 652.992L463.458 761.801V846.128L384.742 798.071C371.724 800.52 366.283 803.098 373.885 818.926L463.458 875.144V946.776L443.553 931.362C430.192 932.476 427.104 936.674 428.172 949.496L463.458 973.072L464.363 1012.97V1048.33Z" fill="#242B7B"/>
<path d="M464.363 1048.33C464.363 1048.33 464.363 1091.86 464.363 1105.46M464.363 1048.33V1012.97M464.363 1048.33L461.648 1044.7M464.363 1048.33V1105.46M464.363 1105.46C464.362 1119.06 488.791 1119.96 488.791 1105.46M488.791 1105.46C488.791 1090.95 488.791 1048.33 488.791 1048.33M488.791 1105.46V1048.33M488.791 1048.33C592.625 952.869 597.56 924.157 566.602 891.465C716.318 795.575 732.176 702.863 588.317 750.921C726.306 614.777 714.59 517.008 590.126 578.64C635.121 460.88 610.063 408.608 536.744 438.095C512.241 358.013 443.553 347.421 417.314 438.095C353.275 400.601 316.884 469.831 363.932 578.64C247.728 529.485 222.773 587.169 363.932 750.013C251.075 696.002 211.026 786.283 386.552 893.278C341.335 928.283 408.267 998.46 461.648 1044.7M461.648 1044.7L464.363 1012.97M464.363 1012.97C397.208 948.655 372.384 918.212 420.029 904.159C429.447 898.056 428.694 893.673 422.743 885.118L322.313 812.579C268.238 751.84 282.959 748.072 358.504 774.495C386.156 773.601 391.292 765.302 386.552 740.039L299.694 631.23C278.379 579.363 288.633 572.784 338.599 593.147C378.925 613.226 387.816 606.108 386.552 570.479L367.552 497.94C361.04 446.749 392.885 438.095 417.314 478.898C429.425 486.403 434.165 484.812 439.934 474.364C443.171 368.816 515.935 378.25 514.125 474.364C520.088 486.191 524.876 486.586 534.935 480.712C562.52 436.434 600.984 448.976 586.507 501.567L564.793 570.479C563.049 605.497 571.914 611.58 606.413 596.774C671.512 562.755 679.922 584.155 647.127 638.484L576.555 726.438C551.98 765.046 570.221 781.749 606.413 771.775C680.33 742.289 677.89 764.521 637.175 806.231V808.045L538.554 881.491C524.343 891.582 525.887 901.439 538.554 904.159C564.929 914.954 563.631 927.057 549.412 953.123L488.791 1011.15V973.072L524.078 949.496C524.312 937.334 521.995 932.761 510.506 931.362L488.791 946.776V875.144L585.603 813.485C587.328 800.23 583.921 796.646 572.031 795.35L488.791 846.128V761.801L596.46 652.992C596.957 638.541 593.934 634.276 578.364 638.484L488.791 726.438V645.738L550.316 525.142C546.382 514.196 543.14 509.868 530.411 514.261L488.791 591.334V469.831C479.892 461.448 474.582 458.588 463.458 469.831V591.334L425.457 516.074C412.398 511.146 406.936 512.109 403.743 526.955L463.458 645.738V726.438L372.98 638.484C360.677 635.421 355.393 636.394 354.885 652.992L463.458 761.801V846.128L384.742 798.071C371.724 800.52 366.283 803.098 373.885 818.926L463.458 875.144V946.776L443.553 931.362C430.192 932.476 427.104 936.674 428.172 949.496L463.458 973.072L464.363 1012.97Z" stroke="#242B7B"/>
<path d="M1014.75 536.3C1017.78 554.733 1018.13 571.883 1015.8 587.75C1013.7 603.617 1010.08 617.85 1004.95 630.45C999.817 642.817 993.867 653.433 987.1 662.3C980.567 670.933 974.383 677.35 968.55 681.55C949.183 695.783 930.867 705.583 913.6 710.95C896.333 716.083 880.35 717.6 865.65 715.5C851.183 713.633 838.117 708.617 826.45 700.45C814.783 692.283 804.75 682.017 796.35 669.65C790.05 660.317 785.85 649.467 783.75 637.1C781.883 624.5 781.883 611.433 783.75 597.9C785.617 584.133 789.35 570.25 794.95 556.25C800.783 542.25 808.367 529.183 817.7 517.05C827.033 504.683 838.117 493.717 850.95 484.15C863.783 474.583 878.25 467.233 894.35 462.1C899.25 460.467 905.667 459.3 913.6 458.6C921.533 457.667 928.767 457.55 935.3 458.25L937.4 468.4L931.45 478.2L950.7 474.35L962.25 484.5L967.85 469.8C979.05 475.867 988.967 484.267 997.6 495C1006.23 505.733 1011.95 519.5 1014.75 536.3ZM967.85 556.25C965.983 545.283 962.717 536.067 958.05 528.6C953.617 520.9 948.017 515.3 941.25 511.8C934.483 508.067 926.667 506.55 917.8 507.25C908.933 507.95 899.367 511.1 889.1 516.7C873.233 525.1 860.633 535.25 851.3 547.15C841.967 558.817 835.433 570.717 831.7 582.85C827.967 594.983 826.8 606.65 828.2 617.85C829.6 629.05 833.1 638.383 838.7 645.85C844.3 653.083 850.483 658.333 857.25 661.6C864.25 664.633 871.367 666.267 878.6 666.5C885.833 666.733 892.95 665.8 899.95 663.7C907.183 661.367 913.6 658.45 919.2 654.95C929.233 648.883 937.633 641.883 944.4 633.95C951.4 626.017 956.883 617.733 960.85 609.1C964.817 600.467 967.267 591.6 968.2 582.5C969.367 573.4 969.25 564.65 967.85 556.25ZM1221.55 709.2L1210.35 708.5L1203.7 716.9L1185.5 707.1L1173.95 717.25L1158.9 660.9L1088.55 668.25L1076.65 717.25L1060.55 719L1042.7 706.4L1029.4 709.2L1079.1 506.9L1054.6 508.3L1056.35 496.4L1049 485.55L1057.75 469.45L1050.4 461.4L1153.65 454.05L1221.55 709.2ZM1146.65 614.7L1123.2 525.8L1100.45 619.6L1146.65 614.7ZM1405.49 477.5L1335.14 567.1L1396.04 707.8L1379.94 720.75L1362.09 712L1351.94 724.95L1301.89 609.45L1282.99 633.25V709.9L1267.24 704.3L1251.49 720.4L1235.74 713.05V467.7L1243.79 459.3L1258.49 472.25L1269.34 462.45L1282.99 464.55V556.95L1368.04 448.8L1371.54 460L1390.09 453.7L1393.59 469.45L1405.49 477.5ZM1604.36 709.2L1593.16 708.5L1586.51 716.9L1568.31 707.1L1556.76 717.25L1541.71 660.9L1471.36 668.25L1459.46 717.25L1443.36 719L1425.51 706.4L1412.21 709.2L1461.91 506.9L1437.41 508.3L1439.16 496.4L1431.81 485.55L1440.56 469.45L1433.21 461.4L1536.46 454.05L1604.36 709.2ZM1529.46 614.7L1506.01 525.8L1483.26 619.6L1529.46 614.7ZM1816.65 531.75C1817.82 545.517 1816.3 559.05 1812.1 572.35C1807.9 585.65 1801.83 598.6 1793.9 611.2C1785.97 623.8 1776.75 635.817 1766.25 647.25C1755.75 658.45 1744.9 668.833 1733.7 678.4C1722.5 687.733 1711.3 696.017 1700.1 703.25C1689.13 710.483 1679.22 716.317 1670.35 720.75C1669.88 720.283 1668.72 719.7 1666.85 719C1664.98 718.533 1663.12 717.95 1661.25 717.25C1658.68 716.317 1656.12 715.5 1653.55 714.8L1650.05 693.8L1636.75 691L1632.9 511.8L1615.75 513.9L1620.3 502L1611.2 490.8L1618.9 477.15L1613.3 465.95C1623.33 464.783 1635.12 463.5 1648.65 462.1C1662.42 460.467 1676.53 459.533 1691 459.3C1705.7 458.833 1720.17 459.417 1734.4 461.05C1748.87 462.683 1761.93 466.183 1773.6 471.55C1785.27 476.683 1794.95 484.15 1802.65 493.95C1810.58 503.517 1815.25 516.117 1816.65 531.75ZM1724.95 505.85C1717.48 504.217 1710.13 503.867 1702.9 504.8C1695.67 505.733 1687.97 506.433 1679.8 506.9L1681.2 660.2C1691.7 653.667 1702.2 645.733 1712.7 636.4C1723.43 627.067 1733 617.267 1741.4 607C1750.03 596.5 1756.92 586 1762.05 575.5C1767.18 565 1769.52 555.2 1769.05 546.1C1768.82 536.767 1765.32 528.6 1758.55 521.6C1751.78 514.367 1740.58 509.117 1724.95 505.85ZM2003.2 679.1L1997.6 690.65L2003.2 702.55L1877.2 723.9L1875.1 708.5H1861.45L1863.9 691.7L1846.4 691L1851.65 510.4H1838L1843.6 498.85L1834.5 487.65L1839.05 476.1L1836.6 464.2L1985.7 456.85L1989.55 475.05L1979.4 486.6L1985.7 504.1L1898.9 508.3L1897.15 570.25L1975.9 560.8L1970.3 577.25L1982.9 588.45L1978.35 607.7L1895.75 617.85L1894.35 672.45L1997.6 655.3L1993.05 668.95L2003.2 679.1ZM2242 714.45L2223.1 707.45L2208.4 722.15L2195.1 716.55L2190.9 597.9L2134.9 731.95L2076.1 589.15V713.4L2065.6 712L2052.65 717.6L2042.5 706.4L2028.85 712.7L2030.6 463.15L2042.5 470.15L2057.2 455.45L2075.4 462.1L2133.85 612.6L2186 461.75L2197.2 467.35L2210.15 450.2L2220.3 462.1L2234.3 461.75L2242 714.45ZM2449.51 460.35L2385.81 595.8L2387.91 707.45L2377.41 706.05L2365.16 712L2352.56 705.35L2340.66 712L2338.56 598.95L2260.86 480.65L2282.91 478.9L2285.01 463.15L2300.41 454.75L2358.51 542.95L2406.81 440.4L2419.06 440.75L2425.01 460.35L2439.01 456.85L2449.51 460.35Z" fill="#242B7B"/>
<path d="M902.4 1002.4L837.6 1013.6L836.4 1003.4H826.4L827.8 869.8L835.2 871.6L846.2 863.2L854.8 867.2L854 982L897.6 975.8L901 980.8L896.8 990L901.8 994.2L902.4 1002.4ZM1068.06 992.2L1064.86 998.8L1068.06 1005.6L996.063 1017.8L994.863 1009H987.063L988.463 999.4L978.463 999L981.463 895.8H973.663L976.863 889.2L971.662 882.8L974.263 876.2L972.863 869.4L1058.06 865.2L1060.26 875.6L1054.46 882.2L1058.06 892.2L1008.46 894.6L1007.46 930L1052.46 924.6L1049.26 934L1056.46 940.4L1053.86 951.4L1006.66 957.2L1005.86 988.4L1064.86 978.6L1062.26 986.4L1068.06 992.2ZM1241.12 1009.4L1234.72 1009L1230.92 1013.8L1220.52 1008.2L1213.92 1014L1205.32 981.8L1165.12 986L1158.32 1014L1149.12 1015L1138.92 1007.8L1131.32 1009.4L1159.72 893.8L1145.72 894.6L1146.72 887.8L1142.52 881.6L1147.52 872.4L1143.32 867.8L1202.32 863.6L1241.12 1009.4ZM1198.32 955.4L1184.92 904.6L1171.92 958.2L1198.32 955.4ZM1412.23 1005.4L1407.03 1011H1393.23L1388.03 1017.2L1364.43 967.4C1361.36 969.267 1358.23 971.067 1355.03 972.8C1351.96 974.4 1348.83 976 1345.63 977.6L1346.83 1010.2L1339.03 1010L1333.63 1014.4L1326.43 1007.6L1319.83 1011.2L1315.83 893.2C1314.63 893.467 1313.5 893.6 1312.43 893.6C1311.5 893.6 1310.7 893.667 1310.03 893.8C1309.23 893.933 1308.56 894 1308.03 894L1311.03 885.8L1304.83 877.8L1307.83 873.2L1305.03 867.2C1311.3 866.4 1317.63 865.667 1324.03 865C1329.36 864.333 1335.03 863.8 1341.03 863.4C1347.16 863 1352.56 862.8 1357.23 862.8C1362.83 862.8 1368.36 863.133 1373.83 863.8C1379.43 864.467 1384.63 865.733 1389.43 867.6C1394.36 869.467 1398.76 872.067 1402.63 875.4C1406.5 878.733 1409.56 883.133 1411.83 888.6C1414.5 895 1415.76 901.133 1415.63 907C1415.5 912.867 1414.23 918.467 1411.83 923.8C1409.56 929 1406.3 934 1402.03 938.8C1397.9 943.6 1393.03 948.133 1387.43 952.4L1412.23 1005.4ZM1371.43 929.8C1379.43 924.6 1384.36 919.533 1386.23 914.6C1388.23 909.533 1388.03 905.067 1385.63 901.2C1383.36 897.333 1379.43 894.333 1373.83 892.2C1368.23 890.067 1361.9 889.267 1354.83 889.8C1353.1 889.933 1351.23 890.067 1349.23 890.2C1347.23 890.333 1345.1 890.533 1342.83 890.8L1344.63 946.8C1349.16 944.133 1353.56 941.4 1357.83 938.6C1362.23 935.8 1366.76 932.867 1371.43 929.8ZM1585.6 868.6L1580.4 1007L1573.6 1000.2L1571 1010L1513.2 927.4L1516 1007.8L1510.2 1008.8L1499.8 1003.4L1495.2 1011L1488.6 1010.4L1484.8 870.8L1491.6 873.6L1499.8 866L1510.4 868.6L1556.4 939.8L1558.6 867.8L1565 870.4L1572 863.2L1578 868.8L1585.6 868.6ZM1689.95 867L1688.95 1010.6L1681.95 1015.8L1668.95 1007L1661.95 1011L1662.95 867.2L1669.35 863L1676.35 870.8L1683.15 867.2L1689.95 867ZM1868.39 868.6L1863.19 1007L1856.39 1000.2L1853.79 1010L1795.99 927.4L1798.79 1007.8L1792.99 1008.8L1782.59 1003.4L1777.99 1011L1771.39 1010.4L1767.59 870.8L1774.39 873.6L1782.59 866L1793.19 868.6L1839.19 939.8L1841.39 867.8L1847.79 870.4L1854.79 863.2L1860.79 868.8L1868.39 868.6ZM2062.55 942.2L2059.35 949V956.2L2050.35 958.4L2050.15 999.2C2038.28 1006.8 2026.48 1011.87 2014.75 1014.4C2003.15 1017.07 1992.41 1017.53 1982.55 1015.8C1972.81 1014.07 1964.35 1010.47 1957.15 1005C1949.95 999.4 1944.95 992.4 1942.15 984C1940.01 977.733 1939.21 970.733 1939.75 963C1940.41 955.267 1942.15 947.333 1944.95 939.2C1947.75 930.933 1951.55 922.667 1956.35 914.4C1961.28 906.133 1967.01 898.333 1973.55 891C1980.08 883.667 1987.35 877.067 1995.35 871.2C2003.48 865.2 2012.15 860.467 2021.35 857L2026.15 861.8L2032.95 861.4L2035.35 870.8L2042.75 868.8L2039.75 910L2033.35 909.2L2026.55 914.6L2019.15 906.8L2012.55 911.6L2013.35 890.4C2004.95 896.667 1997.48 903.533 1990.95 911C1984.55 918.333 1979.35 925.8 1975.35 933.4C1971.35 940.867 1968.55 948.067 1966.95 955C1965.48 961.933 1965.48 968.067 1966.95 973.4C1968.01 977.667 1970.48 981.067 1974.35 983.6C1978.35 986 1983.01 987.667 1988.35 988.6C1993.68 989.4 1999.35 989.4 2005.35 988.6C2011.48 987.667 2017.35 985.933 2022.95 983.4L2023.95 959.6L1995.75 961.8L1992.75 953.8L1998.55 940.8L1995.15 934.8L2059.55 928.2L2056.95 935.6L2062.55 942.2Z" fill="#242B7B"/>
</g>
<defs>
<clipPath id="clip0_4_4">
<rect width="2637" height="1490" fill="white"/>
</clipPath>
</defs>
</svg>
